<?xml version="1.0" encoding="utf-8"?>
<!-- Generator: Adobe Illustrator 17.1.0, SVG Export Plug-In . SVG Version: 6.00 Build 0)  -->
<!DOCTYPE svg PUBLIC "-//W3C//DTD SVG 1.1//EN" "http://www.w3.org/Graphics/SVG/1.1/DTD/svg11.dtd">
<svg version="1.1" xmlns="http://www.w3.org/2000/svg" xmlns:xlink="http://www.w3.org/1999/xlink" x="0px" y="0px"
	 viewBox="0 0 521.9 563.9" enable-background="new 0 0 521.9 563.9" xml:space="preserve">
	<path fill="none" stroke="#000000" stroke-miterlimit="10" d="M103,259.1c6.6-11.5,27.9-17,39.9-19c-1,0.2-8.3-5.9-10-6.6
		c-3.2-1.4-9.4-3.8-12.9-2.6c-6.1,2-10.4,13.2-12.9,18.9c-1.3,3-3.1,5.5-2,8.5c5.8-1.9,11.2-4.6,17.4-5.3c7.2-0.8,15.2,1.2,19.8,6.7
		c7.7,9.3,3.4,23.3-2.3,34c-6.9,13-15.3,25.2-20.5,39c-5.7,15-7.3,31.5-4.6,47.4c1.8,10.5,5.7,21.2,13.7,28.2s21,9.1,29.4,2.6"/>
	<path fill="none" stroke="#000000" stroke-miterlimit="10" d="M177.7,219.9c-1.9-0.6-4-0.2-5.7,0.8c-3.3,1.9-5,6.5-3.3,9.9
		c1.7,3.4,7,4.6,9.6,1.8c1.2-0.1,2-1.5,2.1-2.7c-1.3,4.7-6.1,8.8-10.8,7.6c-4.7-1.2-7-7.2-5.1-11.7c1.8-4.3,6.6-6.9,11.3-7.2
		c7-0.4,14.5,4.9,14.4,11.9c0,5.2-3.9,9.5-8.2,12.3c-3.5,2.3-7.6,4-11.7,3.4c-4.6-0.7-8.5-4.3-9.5-8.8c-2.6-11.8,12.1-18.1,21-20
		c4.2-0.9,9.6-0.6,11.4,3.3"/>
	<path fill="none" stroke="#000000" stroke-miterlimit="10" d="M136.5,170.1c-4.9,2.3-12.1,0-15.4,4.4c-2.3,3.1-0.2,8.4,3.7,8.9
		c-12.4,3.9-18,20.5-12.3,32.2c5.7,11.7,20.1,17.6,33,15.7c-4.9-7.5-4.1-17.9,0.5-25.6c4.6-7.7,12.5-13.1,20.9-16.4
		c26.8-10.6,56.9-1.9,85,4.8c30.1,7.1,61.9,11.8,91.6,3.3c14.9-4.2,29.7-12.4,37.1-26.1s4.7-33.3-8.6-41.2c-4.9-2.9-10.7-4-16.5-4.7
		c-13.6-1.5-27.8-0.9-40.5-6.1c-2-0.8-3.9-1.8-5.4-3.4c-4.4-4.8-2.2-12.5,0.5-18.4c5.4-11.5,12-22.3,19.7-32.3
		c0.8-1.1,1.7-2.3,1.5-3.6c-0.4-2.9-4.7-2.8-7.4-1.7c-24.3,10.2-38.3,35.7-59.4,51.6c-4.2,3.1-8.8,6-14,6.6
		c-5.2,0.7-11-1.3-13.5-5.8c-1.7-2.9-1.8-6.5-1.8-9.9c0.1-17.1,2.9-34.1,8.4-50.3c-3.9-2.1-8.5,1.1-11.5,4.3
		c-19.4,20.6-26.6,49.9-43.1,72.9c-3.8,5.3-9.7,10.8-15.9,8.9c1.7-9.1,3.4-18.3,5-27.4c0.7-3.5,1.3-7.3-0.1-10.7
		c-1.4-3.3-5.6-5.8-8.7-3.9c-1.7,1-2.5,2.8-3.3,4.6c-8.3,18.9-14,38.8-17,59.2c-7.2-2.2-13.5-7.6-16.7-14.5
		C130,153.8,131.5,163.1,136.5,170.1z"/>
	<path fill="none" stroke="#000000" stroke-miterlimit="10" d="M166.8,316.2c1.4,25.2,0.4,50.6-3,75.6c-2,14.7-4.7,29.5-3,44.2
		c3.9,32.5,32.4,60.3,65,63.3c18.5,1.7,36.9-3.7,54.1-10.6c21-8.5,41.1-19.4,59.6-32.4c8.1-5.7,16-11.8,25-15.9
		c9-4.1,19.5-6,28.8-2.9c-3.6-39.1-22-75.1-40-110c-15.6-30.1-31.5-60.9-56.1-84.3c-23.9-22.7-54.8-37.3-86.8-45.1
		c-9.7-2.4-19.7-4.2-29.6-3.2c-9.9,1-19.9,5.1-26.2,12.8c-8.8,10.8-9,26.5-5.4,40c3.5,13.5,10.2,26.1,13.7,39.6
		C165.4,296.8,166.3,306.5,166.8,316.2z"/>
	<path fill="none" stroke="#000000" stroke-miterlimit="10" d="M162.4,254.2c2,4.2,4.3,8.4,7.9,11.4c4.9,4,12.1,5.1,18,2.7
		s10.2-8.3,10.8-14.6c-0.7,3.2-4.1,4.8-7.3,5.6c-13.4,3-28.4-5.1-33.3-17.9C158.7,245.8,160.5,250.1,162.4,254.2z"/>


</svg>
